<svg width="24" height="24" viewBox="0 0 24 24" fill="none" xmlns="http://www.w3.org/2000/svg">
<g clip-path="url(#clip0_308_19)">
<path d="M12.0006 0C7.38322 0 3.6001 3.77232 3.6001 8.37648C3.6001 10.1602 4.16986 11.8181 5.13418 13.181L10.9753 23.2786C11.7935 24.3473 12.3373 24.1442 13.0177 23.2222L19.46 12.2582C19.5901 12.0228 19.6921 11.772 19.7811 11.5162C20.19 10.5199 20.4002 9.45337 20.4001 8.37648C20.4001 3.77232 16.6177 0 12.0006 0ZM12.0006 3.92496C14.4867 3.92496 16.4639 5.89728 16.4639 8.37648C16.4639 10.8557 14.4867 12.827 12.0006 12.827C9.51418 12.827 7.53634 10.8554 7.53634 8.37648C7.53634 5.89728 9.51418 3.92496 12.0003 3.92496H12.0006Z" fill="black"/>
</g>
<defs>
<clipPath id="clip0_308_19">
<rect width="24" height="24" fill="white"/>
</clipPath>
</defs>
</svg>
