<svg width="433" height="486" viewBox="0 0 433 486" fill="none" xmlns="http://www.w3.org/2000/svg">
<g filter="url(#filter0_f_238:38)">
<path d="M148.254 445.916C233.924 353.243 241.156 341.048 279.503 318.908C332.032 288.58 385.675 283.171 399.331 306.825C412.988 330.478 381.482 374.23 328.953 404.557C290.605 426.698 276.45 426.851 153.378 454.694C151.52 455.111 149.855 455.198 148.523 454.947C147.192 454.697 146.235 454.117 145.732 453.257C145.23 452.396 145.198 451.28 145.638 450.005C146.078 448.729 146.979 447.331 148.262 445.93L148.299 445.896L148.254 445.916Z" fill="#878282"/>
<path d="M207.075 427.337C198.939 429.138 190.047 431.106 180.292 433.28C187.02 425.955 193.143 419.268 198.749 413.147C248.894 358.395 257.627 348.858 287.003 331.898C311.865 317.544 336.378 309.476 355.499 307.548C376.152 305.465 384.299 310.789 386.341 314.325C388.383 317.861 388.919 327.578 376.789 344.423C365.559 360.019 346.315 377.213 321.453 391.567C292.088 408.521 279.477 411.312 207.075 427.337Z" stroke="#9E9999" stroke-width="30"/>
</g>
<path d="M152.528 441C23.8756 255.788 0 236.794 0 168.75C0 75.5437 76.1033 0 170 0C263.897 0 340 75.5437 340 168.75C340 236.794 316.124 255.75 187.472 440.925C185.518 443.718 182.914 446.001 179.88 447.581C176.847 449.16 173.474 449.988 170.048 449.996C166.623 450.003 163.246 449.189 160.205 447.623C157.165 446.057 154.55 443.785 152.584 441L152.547 440.925L152.528 441Z" fill="#A045D8"/>
<path d="M173 138.125C156.333 138.125 142.25 151.579 142.25 167.5C142.25 183.421 156.333 196.875 173 196.875C189.667 196.875 203.75 183.421 203.75 167.5C203.75 151.579 189.667 138.125 173 138.125Z" fill="white"/>
<path d="M255 98.9583H228.494L200.747 72.4522C199.797 71.5412 198.667 70.8187 197.423 70.3263C196.18 69.8339 194.846 69.5814 193.5 69.5833H152.5C151.154 69.5814 149.82 69.8339 148.577 70.3263C147.333 70.8187 146.204 71.5412 145.253 72.4522L117.507 98.9583H91C79.6943 98.9583 70.5 107.741 70.5 118.542V226.25C70.5 237.05 79.6943 245.833 91 245.833H255C266.306 245.833 275.5 237.05 275.5 226.25V118.542C275.5 107.741 266.306 98.9583 255 98.9583ZM173 216.458C145.223 216.458 121.75 194.035 121.75 167.5C121.75 140.964 145.223 118.542 173 118.542C200.778 118.542 224.25 140.964 224.25 167.5C224.25 194.035 200.778 216.458 173 216.458Z" fill="white"/>
<defs>
<filter id="filter0_f_238:38" x="115.33" y="262.094" width="317.188" height="222.993" filterUnits="userSpaceOnUse" color-interpolation-filters="sRGB">
<feFlood flood-opacity="0" result="BackgroundImageFix"/>
<feBlend mode="normal" in="SourceGraphic" in2="BackgroundImageFix" result="shape"/>
<feGaussianBlur stdDeviation="15" result="effect1_foregroundBlur_238:38"/>
</filter>
</defs>
</svg>
