<svg width="350" height="450" viewBox="0 0 350 450" fill="none" xmlns="http://www.w3.org/2000/svg">
<path d="M152.528 441C23.8756 255.788 0 236.794 0 168.75C0 75.5437 76.1033 0 170 0C263.897 0 340 75.5437 340 168.75C340 236.794 316.124 255.75 187.472 440.925C185.518 443.718 182.914 446.001 179.88 447.581C176.847 449.16 173.474 449.988 170.048 449.996C166.623 450.003 163.246 449.189 160.205 447.623C157.165 446.057 154.55 443.785 152.584 441L152.547 440.925L152.528 441Z" fill="#A045D8"/>
<path d="M173 138.125C156.333 138.125 142.25 151.579 142.25 167.5C142.25 183.421 156.333 196.875 173 196.875C189.667 196.875 203.75 183.421 203.75 167.5C203.75 151.579 189.667 138.125 173 138.125Z" fill="white"/>
<path d="M255 98.9583H228.494L200.747 72.4522C199.797 71.5412 198.667 70.8187 197.423 70.3263C196.18 69.8339 194.846 69.5814 193.5 69.5833H152.5C151.154 69.5814 149.82 69.8339 148.577 70.3263C147.333 70.8187 146.204 71.5412 145.253 72.4522L117.507 98.9583H91C79.6943 98.9583 70.5 107.741 70.5 118.542V226.25C70.5 237.05 79.6943 245.833 91 245.833H255C266.306 245.833 275.5 237.05 275.5 226.25V118.542C275.5 107.741 266.306 98.9583 255 98.9583ZM173 216.458C145.223 216.458 121.75 194.035 121.75 167.5C121.75 140.964 145.223 118.542 173 118.542C200.778 118.542 224.25 140.964 224.25 167.5C224.25 194.035 200.778 216.458 173 216.458Z" fill="white"/>
</svg>
