<svg width="350" height="450" viewBox="0 0 350 450" fill="none" xmlns="http://www.w3.org/2000/svg">
<path d="M157.014 441C24.5778 255.788 0 236.794 0 168.75C0 75.5437 78.3417 0 175 0C271.658 0 350 75.5437 350 168.75C350 236.794 325.422 255.75 192.986 440.925C190.975 443.718 188.294 446.001 185.171 447.581C182.048 449.16 178.576 449.988 175.049 449.996C171.523 450.003 168.047 449.189 164.917 447.623C161.787 446.057 159.096 443.785 157.072 441L157.033 440.925L157.014 441Z" fill="#F0DA66"/>
<path d="M175.167 70C117.729 70 71 114.86 71 170C71 225.14 117.729 270 175.167 270C232.604 270 279.333 225.14 279.333 170C279.333 114.86 232.604 70 175.167 70ZM185.583 220H164.75V160H185.583V220ZM185.583 140H164.75V120H185.583V140Z" fill="white"/>
</svg>
