<svg width="438" height="474" viewBox="0 0 438 474" fill="none" xmlns="http://www.w3.org/2000/svg">
<g filter="url(#filter0_f_238:47)">
<path d="M153.253 433.916C238.923 341.243 246.155 329.048 284.503 306.908C337.031 276.58 390.674 271.171 404.331 294.825C417.987 318.478 386.481 362.23 333.953 392.557C295.605 414.698 281.449 414.851 158.378 442.694C156.52 443.111 154.854 443.198 153.523 442.947C152.192 442.697 151.234 442.117 150.732 441.257C150.229 440.396 150.197 439.28 150.637 438.005C151.078 436.729 151.978 435.331 153.262 433.93L153.298 433.896L153.253 433.916Z" fill="#878282"/>
<path d="M212.075 415.337C203.938 417.138 195.047 419.106 185.291 421.28C192.019 413.955 198.143 407.268 203.749 401.147C253.893 346.395 262.627 336.858 292.003 319.898C316.864 305.544 341.377 297.476 360.499 295.548C381.152 293.465 389.299 298.789 391.34 302.325C393.382 305.861 393.919 315.578 381.789 332.423C370.558 348.019 351.314 365.213 326.453 379.567C297.088 396.521 284.477 399.312 212.075 415.337Z" stroke="#9E9999" stroke-width="30"/>
</g>
<path d="M157.014 441C24.5778 255.788 0 236.794 0 168.75C0 75.5437 78.3417 0 175 0C271.658 0 350 75.5437 350 168.75C350 236.794 325.422 255.75 192.986 440.925C190.975 443.718 188.294 446.001 185.171 447.581C182.048 449.16 178.576 449.988 175.049 449.996C171.523 450.003 168.047 449.189 164.917 447.623C161.787 446.057 159.096 443.785 157.072 441L157.033 440.925L157.014 441Z" fill="#F0DA66"/>
<path d="M175.167 70C117.729 70 71 114.86 71 170C71 225.14 117.729 270 175.167 270C232.604 270 279.333 225.14 279.333 170C279.333 114.86 232.604 70 175.167 70ZM185.583 220H164.75V160H185.583V220ZM185.583 140H164.75V120H185.583V140Z" fill="white"/>
<defs>
<filter id="filter0_f_238:47" x="120.33" y="250.094" width="317.188" height="222.993" filterUnits="userSpaceOnUse" color-interpolation-filters="sRGB">
<feFlood flood-opacity="0" result="BackgroundImageFix"/>
<feBlend mode="normal" in="SourceGraphic" in2="BackgroundImageFix" result="shape"/>
<feGaussianBlur stdDeviation="15" result="effect1_foregroundBlur_238:47"/>
</filter>
</defs>
</svg>
