<svg width="350" height="450" viewBox="0 0 350 450" fill="none" xmlns="http://www.w3.org/2000/svg">
<path d="M157.014 441C24.5778 255.788 0 236.794 0 168.75C0 75.5437 78.3417 0 175 0C271.658 0 350 75.5437 350 168.75C350 236.794 325.422 255.75 192.986 440.925C190.975 443.718 188.294 446.001 185.171 447.581C182.048 449.16 178.576 449.988 175.049 449.996C171.523 450.003 168.047 449.189 164.917 447.623C161.787 446.057 159.096 443.785 157.072 441L157.033 440.925L157.014 441Z" fill="#3A71D8"/>
<path d="M275.835 228.076H254.782V144.329H275.835V123.392C275.838 121.366 275.248 119.382 274.138 117.684C273.028 115.985 271.445 114.644 269.582 113.824L170.298 69.9502L81.656 114.022C79.9062 114.892 78.4346 116.229 77.4064 117.884C76.3782 119.539 75.8341 121.446 75.835 123.392V144.329H96.8876V228.076H75.835V269.95H275.835V228.076ZM223.203 144.329V228.076H191.624V144.329H223.203ZM128.467 144.329H160.045V228.076H128.467V144.329Z" fill="white"/>
</svg>
