<svg width="439" height="475" viewBox="0 0 439 475" fill="none" xmlns="http://www.w3.org/2000/svg">
<g filter="url(#filter0_f_238:33)">
<path d="M154.253 434.916C239.923 342.243 247.155 330.048 285.503 307.908C338.031 277.58 391.674 272.171 405.331 295.825C418.987 319.478 387.481 363.23 334.953 393.557C296.605 415.698 282.449 415.851 159.378 443.694C157.52 444.111 155.854 444.198 154.523 443.947C153.192 443.697 152.234 443.117 151.732 442.257C151.229 441.396 151.197 440.28 151.637 439.005C152.078 437.729 152.978 436.331 154.262 434.93L154.298 434.896L154.253 434.916Z" fill="#878282"/>
<path d="M213.075 416.337C204.938 418.138 196.047 420.106 186.291 422.28C193.019 414.955 199.143 408.268 204.749 402.147C254.893 347.395 263.627 337.858 293.003 320.898C317.864 306.544 342.377 298.476 361.499 296.548C382.152 294.465 390.299 299.789 392.34 303.325C394.382 306.861 394.919 316.578 382.789 333.423C371.558 349.019 352.314 366.213 327.453 380.567C298.088 397.521 285.477 400.312 213.075 416.337Z" stroke="#9E9999" stroke-width="30"/>
</g>
<path d="M157.014 441C24.5778 255.788 0 236.794 0 168.75C0 75.5437 78.3417 0 175 0C271.658 0 350 75.5437 350 168.75C350 236.794 325.422 255.75 192.986 440.925C190.975 443.718 188.294 446.001 185.171 447.581C182.048 449.16 178.576 449.988 175.049 449.996C171.523 450.003 168.047 449.189 164.917 447.623C161.787 446.057 159.096 443.785 157.072 441L157.033 440.925L157.014 441Z" fill="#3A71D8"/>
<path d="M275.835 228.076H254.782V144.329H275.835V123.392C275.838 121.366 275.248 119.382 274.138 117.684C273.028 115.985 271.445 114.644 269.582 113.824L170.298 69.9502L81.656 114.022C79.9062 114.892 78.4346 116.229 77.4064 117.884C76.3782 119.539 75.8341 121.446 75.835 123.392V144.329H96.8876V228.076H75.835V269.95H275.835V228.076ZM223.203 144.329V228.076H191.624V144.329H223.203ZM128.467 144.329H160.045V228.076H128.467V144.329Z" fill="white"/>
<defs>
<filter id="filter0_f_238:33" x="121.329" y="251.094" width="317.188" height="222.993" filterUnits="userSpaceOnUse" color-interpolation-filters="sRGB">
<feFlood flood-opacity="0" result="BackgroundImageFix"/>
<feBlend mode="normal" in="SourceGraphic" in2="BackgroundImageFix" result="shape"/>
<feGaussianBlur stdDeviation="15" result="effect1_foregroundBlur_238:33"/>
</filter>
</defs>
</svg>
