<svg width="438" height="477" viewBox="0 0 438 477" fill="none" xmlns="http://www.w3.org/2000/svg">
<g filter="url(#filter0_f_233:4)">
<path d="M153.253 436.916C238.923 344.243 246.155 332.048 284.503 309.908C337.031 279.58 390.674 274.171 404.331 297.825C417.987 321.478 386.481 365.23 333.953 395.557C295.605 417.698 281.449 417.851 158.378 445.694C156.52 446.111 154.854 446.198 153.523 445.947C152.192 445.697 151.234 445.117 150.732 444.257C150.229 443.396 150.197 442.28 150.637 441.005C151.078 439.729 151.978 438.331 153.262 436.93L153.298 436.896L153.253 436.916Z" fill="#878282"/>
<path d="M212.075 418.337C203.938 420.138 195.047 422.106 185.291 424.28C192.019 416.955 198.143 410.268 203.749 404.147C253.893 349.395 262.627 339.858 292.003 322.898C316.864 308.544 341.377 300.476 360.499 298.548C381.152 296.465 389.299 301.789 391.34 305.325C393.382 308.861 393.919 318.578 381.789 335.423C370.558 351.019 351.314 368.213 326.453 382.567C297.088 399.521 284.477 402.312 212.075 418.337Z" stroke="#9E9999" stroke-width="30"/>
</g>
<path d="M157.014 441C24.5778 255.788 0 236.794 0 168.75C0 75.5437 78.3417 0 175 0C271.658 0 350 75.5437 350 168.75C350 236.794 325.422 255.75 192.986 440.925C190.975 443.718 188.294 446.001 185.171 447.581C182.048 449.16 178.576 449.988 175.049 449.996C171.523 450.003 168.047 449.189 164.917 447.623C161.787 446.057 159.096 443.785 157.072 441L157.033 440.925L157.014 441Z" fill="#0FA958"/>
<path d="M254.501 242.499L216.001 186.249H244.876L206.376 129.999H225.626L177.501 62.4985L129.376 129.999H148.626L110.126 186.249H139.001L100.501 242.499H167.876V287.499H187.126V242.499H254.501Z" fill="white"/>
<defs>
<filter id="filter0_f_233:4" x="120.33" y="253.094" width="317.188" height="222.993" filterUnits="userSpaceOnUse" color-interpolation-filters="sRGB">
<feFlood flood-opacity="0" result="BackgroundImageFix"/>
<feBlend mode="normal" in="SourceGraphic" in2="BackgroundImageFix" result="shape"/>
<feGaussianBlur stdDeviation="15" result="effect1_foregroundBlur_233:4"/>
</filter>
</defs>
</svg>
