<svg width="350" height="450" viewBox="0 0 350 450" fill="none" xmlns="http://www.w3.org/2000/svg">
<path d="M157.014 441C24.5778 255.788 0 236.794 0 168.75C0 75.5437 78.3417 0 175 0C271.658 0 350 75.5437 350 168.75C350 236.794 325.422 255.75 192.986 440.925C190.975 443.718 188.294 446.001 185.171 447.581C182.048 449.16 178.576 449.988 175.049 449.996C171.523 450.003 168.047 449.189 164.917 447.623C161.787 446.057 159.096 443.785 157.072 441L157.033 440.925L157.014 441Z" fill="#0FA958"/>
<path d="M254.501 242.499L216.001 186.249H244.876L206.376 129.999H225.626L177.501 62.4985L129.376 129.999H148.626L110.126 186.249H139.001L100.501 242.499H167.876V287.499H187.126V242.499H254.501Z" fill="white"/>
</svg>
